<?xml version="1.0" encoding="UTF-8" standalone="no"?>
<svg
   xmlns:dc="http://purl.org/dc/elements/1.1/"
   xmlns:cc="http://creativecommons.org/ns#"
   xmlns:rdf="http://www.w3.org/1999/02/22-rdf-syntax-ns#"
   xmlns:svg="http://www.w3.org/2000/svg"
   xmlns="http://www.w3.org/2000/svg"
   viewBox="0 0 800 266.66666"
   height="266.66666"
   width="800"
   xml:space="preserve"
   id="svg2"
   version="1.1"><metadata
     id="metadata8"><rdf:RDF><cc:Work
         rdf:about=""><dc:format>image/svg+xml</dc:format><dc:type
           rdf:resource="http://purl.org/dc/dcmitype/StillImage" /></cc:Work></rdf:RDF></metadata><defs
     id="defs6"><clipPath
       id="clipPath20"
       clipPathUnits="userSpaceOnUse"><path
         id="path18"
         d="M 0,0 H 600 V 200 H 0 Z" /></clipPath><clipPath
       id="clipPath34"
       clipPathUnits="userSpaceOnUse"><path
         id="path32"
         d="m 148.7077,145.7706 h 159.2995 v 40.68003 H 148.7077 Z" /></clipPath><clipPath
       id="clipPath48"
       clipPathUnits="userSpaceOnUse"><path
         id="path46"
         d="M 0,0 H 600 V 200 H 0 Z" /></clipPath><clipPath
       id="clipPath60"
       clipPathUnits="userSpaceOnUse"><path
         id="path58"
         d="m 463.0414,145.7706 h 124.8355 v 40.68003 H 463.0414 Z" /></clipPath><clipPath
       id="clipPath74"
       clipPathUnits="userSpaceOnUse"><path
         id="path72"
         d="M 0,0 H 600 V 200 H 0 Z" /></clipPath><clipPath
       id="clipPath122"
       clipPathUnits="userSpaceOnUse"><path
         id="path120"
         d="m 148.7077,5.901398 h 159.2995 v 67.68003 H 148.7077 Z" /></clipPath><clipPath
       id="clipPath142"
       clipPathUnits="userSpaceOnUse"><path
         id="path140"
         d="M 0,0 H 600 V 200 H 0 Z" /></clipPath><clipPath
       id="clipPath164"
       clipPathUnits="userSpaceOnUse"><path
         id="path162"
         d="m 350.1207,166.2418 h 56.11776 v 27.12002 H 350.1207 Z" /></clipPath><clipPath
       id="clipPath178"
       clipPathUnits="userSpaceOnUse"><path
         id="path176"
         d="M 0,0 H 600 V 200 H 0 Z" /></clipPath><clipPath
       id="clipPath200"
       clipPathUnits="userSpaceOnUse"><path
         id="path198"
         d="m 350.1207,6.653674 h 56.11776 v 27.12002 H 350.1207 Z" /></clipPath><clipPath
       id="clipPath214"
       clipPathUnits="userSpaceOnUse"><path
         id="path212"
         d="M 0,0 H 600 V 200 H 0 Z" /></clipPath><clipPath
       id="clipPath232"
       clipPathUnits="userSpaceOnUse"><path
         id="path230"
         d="m 463.0414,5.901398 h 124.8355 v 67.68003 H 463.0414 Z" /></clipPath><clipPath
       id="clipPath252"
       clipPathUnits="userSpaceOnUse"><path
         id="path250"
         d="M 0,0 H 600 V 200 H 0 Z" /></clipPath><clipPath
       id="clipPath262"
       clipPathUnits="userSpaceOnUse"><path
         id="path260"
         d="m 532.1207,86.43999 h 56.11776 v 27.12002 H 532.1207 Z" /></clipPath><clipPath
       id="clipPath276"
       clipPathUnits="userSpaceOnUse"><path
         id="path274"
         d="M 0,0 H 600 V 200 H 0 Z" /></clipPath><clipPath
       id="clipPath286"
       clipPathUnits="userSpaceOnUse"><path
         id="path284"
         d="m 295.9656,99.23999 h 64.55526 v 27.12002 H 295.9656 Z" /></clipPath></defs><g
     transform="matrix(1.3333333,0,0,-1.3333333,0,266.66667)"
     id="g10"><g
       id="g12" /><g
       id="g14"><g
         clip-path="url(#clipPath20)"
         id="g16"><path
           id="path22"
           style="fill:#ffffff;fill-opacity:1;fill-rule:nonzero;stroke:none"
           d="M 0,0 H 600 V 200 H 0 Z" /><g
           transform="matrix(1,0,0,-1,151.0477,184.1106)"
           id="g24"><path
             id="path26"
             style="fill:none;stroke:#000000;stroke-width:1;stroke-linecap:butt;stroke-linejoin:miter;stroke-miterlimit:4;stroke-dasharray:none;stroke-opacity:1"
             d="M 0,0 H 154.6195 V 36 H 0 Z" /></g></g></g><g
       id="g28"><g
         clip-path="url(#clipPath34)"
         id="g30"><g
           transform="translate(162,159)"
           id="g36"><text
             id="text40"
             style="font-variant:normal;font-weight:bold;font-size:24px;font-family:LibertinusSerif;-inkscape-font-specification:LibertinusSerif-Bold;writing-mode:lr-tb;fill:#000000;fill-opacity:1;fill-rule:nonzero;stroke:none"
             transform="scale(1,-1)"><tspan
               id="tspan38"
               y="0"
               x="0 8.8079996 23.591999 33.84 42.431999 52.703999 67.056 78 86.592003 94.32 107.544 122.328">Instructions</tspan></text>
</g></g></g><g
       id="g42"><g
         clip-path="url(#clipPath48)"
         id="g44"><g
           transform="matrix(1,0,0,-1,465.3814,184.1106)"
           id="g50"><path
             id="path52"
             style="fill:none;stroke:#000000;stroke-width:1;stroke-linecap:butt;stroke-linejoin:miter;stroke-miterlimit:4;stroke-dasharray:none;stroke-opacity:1"
             d="M 0,0 H 120.1555 V 36 H 0 Z" /></g></g></g><g
       id="g54"><g
         clip-path="url(#clipPath60)"
         id="g56"><g
           transform="translate(472,159)"
           id="g62"><text
             id="text66"
             style="font-variant:normal;font-weight:bold;font-size:24px;font-family:LibertinusSerif;-inkscape-font-specification:LibertinusSerif-Bold;writing-mode:lr-tb;fill:#000000;fill-opacity:1;fill-rule:nonzero;stroke:none"
             transform="scale(1,-1)"><tspan
               id="tspan64"
               y="0"
               x="0 17.568001 26.16 34.751999 46.487999 56.759998 68.903999 83.688004 94.632004">Utterance</tspan></text>
</g></g></g><g
       id="g68"><g
         clip-path="url(#clipPath74)"
         id="g70"><g
           transform="translate(25,172)"
           id="g76"><text
             id="text80"
             style="font-variant:normal;font-weight:normal;font-size:24px;font-family:LibertinusSerif;-inkscape-font-specification:LibertinusSerif-Regular;writing-mode:lr-tb;fill:#000000;fill-opacity:1;fill-rule:nonzero;stroke:none"
             transform="scale(1,-1)"><tspan
               id="tspan78"
               y="0"
               x="0 16.440001 27.167999 40.175999 50.903999 59.832001 70.800003 78.384003 90.480003 99.407997">Generator/</tspan></text>
</g><g
           transform="translate(25,172)"
           id="g82"><text
             id="text86"
             style="font-variant:normal;font-weight:normal;font-size:24px;font-family:LucidaGrande;-inkscape-font-specification:LucidaGrande;writing-mode:lr-tb;fill:#000000;fill-opacity:1;fill-rule:nonzero;stroke:none"
             transform="matrix(1,0,0,-1,107.16,0)"><tspan
               id="tspan84"
               y="0"
               x="0"> </tspan></text>
</g><g
           transform="translate(37,145)"
           id="g88"><text
             id="text92"
             style="font-variant:normal;font-weight:normal;font-size:24px;font-family:LibertinusSerif;-inkscape-font-specification:LibertinusSerif-Regular;writing-mode:lr-tb;fill:#000000;fill-opacity:1;fill-rule:nonzero;stroke:none"
             transform="scale(1,-1)"><tspan
               id="tspan90"
               y="0"
               x="0 11.64 24.264 34.992001 45.959999 58.248001 68.975998 77.903999">Speaker:</tspan></text>
</g><g
           transform="translate(44,46)"
           id="g94"><text
             id="text98"
             style="font-variant:normal;font-weight:normal;font-size:24px;font-family:LibertinusSerif;-inkscape-font-specification:LibertinusSerif-Regular;writing-mode:lr-tb;fill:#000000;fill-opacity:1;fill-rule:nonzero;stroke:none"
             transform="scale(1,-1)"><tspan
               id="tspan96"
               y="0"
               x="0 12.984 23.952 32.880001 42.240002 52.967999 61.896">Parser/</tspan></text>
</g><g
           transform="translate(44,46)"
           id="g100"><text
             id="text104"
             style="font-variant:normal;font-weight:normal;font-size:24px;font-family:LucidaGrande;-inkscape-font-specification:LucidaGrande;writing-mode:lr-tb;fill:#000000;fill-opacity:1;fill-rule:nonzero;stroke:none"
             transform="matrix(1,0,0,-1,69.648,0)"><tspan
               id="tspan102"
               y="0"
               x="0"> </tspan></text>
</g><g
           transform="translate(25,19)"
           id="g106"><text
             id="text110"
             style="font-variant:normal;font-weight:normal;font-size:24px;font-family:LibertinusSerif;-inkscape-font-specification:LibertinusSerif-Regular;writing-mode:lr-tb;fill:#000000;fill-opacity:1;fill-rule:nonzero;stroke:none"
             transform="scale(1,-1)"><tspan
               id="tspan108"
               y="0"
               x="0 16.392 28.535999 40.68 49.416 60.144001 69.503998 78.863998 89.760002 100.488">Addressee:</tspan></text>
</g><g
           transform="matrix(1,0,0,-1,151.0477,71.24141)"
           id="g112"><path
             id="path114"
             style="fill:none;stroke:#000000;stroke-width:1;stroke-linecap:butt;stroke-linejoin:miter;stroke-miterlimit:4;stroke-dasharray:none;stroke-opacity:1"
             d="M 0,0 H 154.6195 V 63 H 0 Z" /></g></g></g><g
       id="g116"><g
         clip-path="url(#clipPath122)"
         id="g118"><g
           transform="translate(185,46)"
           id="g124"><text
             id="text128"
             style="font-variant:normal;font-weight:normal;font-size:24px;font-family:LibertinusSerif;-inkscape-font-specification:LibertinusSerif-Regular;writing-mode:lr-tb;fill:#000000;fill-opacity:1;fill-rule:nonzero;stroke:none"
             transform="scale(1,-1)"><tspan
               id="tspan126"
               y="0"
               x="0 18.959999 25.464001 34.391998 43.127998 55.223999 63.959999 74.856003 87">mirrored </tspan></text>
</g><g
           transform="translate(162,19)"
           id="g130"><text
             id="text134"
             style="font-variant:normal;font-weight:bold;font-size:24px;font-family:LibertinusSerif;-inkscape-font-specification:LibertinusSerif-Bold;writing-mode:lr-tb;fill:#000000;fill-opacity:1;fill-rule:nonzero;stroke:none"
             transform="scale(1,-1)"><tspan
               id="tspan132"
               y="0"
               x="0 8.8079996 23.591999 33.84 42.431999 52.703999 67.056 78 86.592003 94.32 107.544 122.328">Instructions</tspan></text>
</g></g></g><g
       id="g136"><g
         clip-path="url(#clipPath142)"
         id="g138"><g
           transform="matrix(1,0,0,-1,359.9609,147.6106)"
           id="g144"><path
             id="path146"
             style="fill:none;stroke:#000000;stroke-width:3;stroke-linecap:butt;stroke-linejoin:miter;stroke-miterlimit:4;stroke-dasharray:none;stroke-opacity:1"
             d="m 11.69812,36.12556 1.49976,0.02689 C 110.4955,37.34674 162.1373,25.29592 168.1233,0" /></g><path
           id="path148"
           style="fill:#000000;fill-opacity:1;fill-rule:nonzero;stroke:none"
           d="m 373.2771,118.0571 -13.3162,-6.3623 13.0795,-6.8356 z" /><g
           transform="matrix(1,0,0,-1,306.1741,179.6173)"
           id="g150"><path
             id="path152"
             style="fill:none;stroke:#000000;stroke-width:3;stroke-linecap:butt;stroke-linejoin:miter;stroke-miterlimit:4;stroke-dasharray:none;stroke-opacity:1"
             d="M 0,3.606577 C 51.13972,-0.9388065 99.66332,-1.187766 145.5708,2.859698 l 1.4933,0.145857" /></g><path
           id="path154"
           style="fill:#000000;fill-opacity:1;fill-rule:nonzero;stroke:none"
           d="m 451.1037,170.1888 13.7791,5.2855 -12.4959,7.852 z" /><path
           id="path156"
           style="fill:#ffffff;fill-opacity:1;fill-rule:nonzero;stroke:none"
           d="m 350.6807,192.8018 h 54.9978 v -26 h -54.9978 z" /></g></g><g
       id="g158"><g
         clip-path="url(#clipPath164)"
         id="g160"><g
           transform="translate(358,175)"
           id="g166"><text
             id="text170"
             style="font-style:italic;font-variant:normal;font-weight:bold;font-size:16px;font-family:LibertinusSerif;-inkscape-font-specification:LibertinusSerif-BoldItalic;writing-mode:lr-tb;fill:#000000;fill-opacity:1;fill-rule:nonzero;stroke:none"
             transform="scale(1,-1)"><tspan
               id="tspan168"
               y="0"
               x="0 10.976 21.312 26.496 33.040001">Rules</tspan></text>
</g></g></g><g
       id="g172"><g
         clip-path="url(#clipPath178)"
         id="g174"><g
           transform="matrix(1,0,0,-1,230.4798,103.6954)"
           id="g180"><path
             id="path182"
             style="fill:none;stroke:#000000;stroke-width:3;stroke-linecap:butt;stroke-linejoin:miter;stroke-miterlimit:4;stroke-dasharray:none;stroke-opacity:1"
             d="M 9.224016,24.75619 10.40658,23.8334 C 22.84823,15.75709 41.39432,7.81288 66.04581,0" /></g><path
           id="path184"
           style="fill:#000000;fill-opacity:1;fill-rule:nonzero;stroke:none"
           d="m 236.8261,85.06529 -6.3463,-13.32382 14.4669,2.91724 z" /><g
           transform="matrix(1,0,0,-1,306.1727,25.90818)"
           id="g186"><path
             id="path188"
             style="fill:none;stroke:#000000;stroke-width:3;stroke-linecap:butt;stroke-linejoin:miter;stroke-miterlimit:4;stroke-dasharray:none;stroke-opacity:1"
             d="m 0,0 c 52.97594,6.891839 101.5198,7.634077 145.6317,2.226714 l 1.4867,-0.204982" /></g><path
           id="path190"
           style="fill:#000000;fill-opacity:1;fill-rule:nonzero;stroke:none"
           d="m 452.7066,17.14342 12.1748,8.34112 -13.9777,4.73517 z" /><path
           id="path192"
           style="fill:#ffffff;fill-opacity:1;fill-rule:nonzero;stroke:none"
           d="m 350.6807,33.21368 h 54.9978 V 7.213685 h -54.9978 z" /></g></g><g
       id="g194"><g
         clip-path="url(#clipPath200)"
         id="g196"><g
           transform="translate(358,15)"
           id="g202"><text
             id="text206"
             style="font-style:italic;font-variant:normal;font-weight:bold;font-size:16px;font-family:LibertinusSerif;-inkscape-font-specification:LibertinusSerif-BoldItalic;writing-mode:lr-tb;fill:#000000;fill-opacity:1;fill-rule:nonzero;stroke:none"
             transform="scale(1,-1)"><tspan
               id="tspan204"
               y="0"
               x="0 10.976 21.312 26.496 33.040001">Rules</tspan></text>
</g></g></g><g
       id="g208"><g
         clip-path="url(#clipPath214)"
         id="g210"><g
           transform="matrix(1,0,0,-1,541.9281,147.6074)"
           id="g216"><path
             id="path218"
             style="fill:none;stroke:#000000;stroke-width:3;stroke-linecap:butt;stroke-linejoin:miter;stroke-miterlimit:4;stroke-dasharray:none;stroke-opacity:1"
             d="M 22.67772,75.86603 C 31.13808,58.14513 26.23967,36.36139 7.982511,10.5148 L 7.074564,9.318828" /></g><path
           id="path220"
           style="fill:#000000;fill-opacity:1;fill-rule:nonzero;stroke:none"
           d="m 555.1664,141.0846 -13.2383,6.5228 2.7247,-14.5043 z" /><g
           transform="matrix(1,0,0,-1,465.3814,71.24141)"
           id="g222"><path
             id="path224"
             style="fill:none;stroke:#000000;stroke-width:1;stroke-linecap:butt;stroke-linejoin:miter;stroke-miterlimit:4;stroke-dasharray:none;stroke-opacity:1"
             d="M 0,0 H 120.1555 V 63 H 0 Z" /></g></g></g><g
       id="g226"><g
         clip-path="url(#clipPath232)"
         id="g228"><g
           transform="translate(482,46)"
           id="g234"><text
             id="text238"
             style="font-variant:normal;font-weight:normal;font-size:24px;font-family:LibertinusSerif;-inkscape-font-specification:LibertinusSerif-Regular;writing-mode:lr-tb;fill:#000000;fill-opacity:1;fill-rule:nonzero;stroke:none"
             transform="scale(1,-1)"><tspan
               id="tspan236"
               y="0"
               x="0 18.959999 25.464001 34.391998 43.127998 55.223999 63.959999 74.856003 87">mirrored </tspan></text>
</g><g
           transform="translate(472,19)"
           id="g240"><text
             id="text244"
             style="font-variant:normal;font-weight:bold;font-size:24px;font-family:LibertinusSerif;-inkscape-font-specification:LibertinusSerif-Bold;writing-mode:lr-tb;fill:#000000;fill-opacity:1;fill-rule:nonzero;stroke:none"
             transform="scale(1,-1)"><tspan
               id="tspan242"
               y="0"
               x="0 17.568001 26.16 34.751999 46.487999 56.759998 68.903999 83.688004 94.632004">Utterance</tspan></text>
</g></g></g><g
       id="g246"><g
         clip-path="url(#clipPath252)"
         id="g248"><path
           id="path254"
           style="fill:#ffffff;fill-opacity:1;fill-rule:nonzero;stroke:none"
           d="m 532.6807,113 h 54.9978 V 87 h -54.9978 z" /></g></g><g
       id="g256"><g
         clip-path="url(#clipPath262)"
         id="g258"><g
           transform="translate(539,95)"
           id="g264"><text
             id="text268"
             style="font-style:italic;font-variant:normal;font-weight:bold;font-size:16px;font-family:LibertinusSerif;-inkscape-font-specification:LibertinusSerif-BoldItalic;writing-mode:lr-tb;fill:#000000;fill-opacity:1;fill-rule:nonzero;stroke:none"
             transform="scale(1,-1)"><tspan
               id="tspan266"
               y="0"
               x="0 10.8 20.719999 27.375999 34.32">Check</tspan></text>
</g></g></g><g
       id="g270"><g
         clip-path="url(#clipPath276)"
         id="g272"><path
           id="path278"
           style="fill:#ffffff;fill-opacity:1;fill-rule:nonzero;stroke:none"
           d="m 296.5256,125.8 h 63.4353 v -26 h -63.4353 z" /></g></g><g
       id="g280"><g
         clip-path="url(#clipPath286)"
         id="g282"><g
           transform="translate(303,108)"
           id="g288"><text
             id="text292"
             style="font-style:italic;font-variant:normal;font-weight:bold;font-size:16px;font-family:LibertinusSerif;-inkscape-font-specification:LibertinusSerif-BoldItalic;writing-mode:lr-tb;fill:#000000;fill-opacity:1;fill-rule:nonzero;stroke:none"
             transform="scale(1,-1)"><tspan
               id="tspan290"
               y="0"
               x="0 9.408 16.096001 22.752001 31.728001 37.200001 44.144001">Predict</tspan></text>
</g></g></g></g></svg>